<svg width="24" height="24" viewBox="0 0 24 24" fill="none" xmlns="http://www.w3.org/2000/svg">
<path d="M5.5 5L6.4375 20C6.48203 20.8667 7.1125 21.5 7.9375 21.5H16.5625C17.3908 21.5 18.0095 20.8667 18.0625 20L19 5" stroke="#CF1322" stroke-width="1.5" stroke-linecap="round" stroke-linejoin="round"/>
<path d="M4 5H20.5" stroke="#CF1322" stroke-width="1.5" stroke-miterlimit="10" stroke-linecap="round"/>
<path d="M9.25 5V3.125C9.24957 2.97715 9.27837 2.83066 9.33475 2.69397C9.39114 2.55729 9.47399 2.4331 9.57854 2.32854C9.68309 2.22399 9.80728 2.14114 9.94397 2.08476C10.0807 2.02838 10.2271 1.99957 10.375 2H14.125C14.2729 1.99957 14.4193 2.02838 14.556 2.08476C14.6927 2.14114 14.8169 2.22399 14.9215 2.32854C15.026 2.4331 15.1089 2.55729 15.1652 2.69397C15.2216 2.83066 15.2504 2.97715 15.25 3.125V5M12.25 8.00001V18.5M8.875 8.00001L9.25 18.5M15.625 8.00001L15.25 18.5" stroke="#CF1322" stroke-width="1.5" stroke-linecap="round" stroke-linejoin="round"/>
</svg>
