<svg width="24" height="24" viewBox="0 0 24 24" fill="none" xmlns="http://www.w3.org/2000/svg">
<path d="M7.5 8V6.5C7.5 5.30653 7.97411 4.16193 8.81802 3.31802C9.66193 2.47411 10.8065 2 12 2C13.1935 2 14.3381 2.47411 15.182 3.31802C16.0259 4.16193 16.5 5.30653 16.5 6.5V8M3.75 8C3.55109 8 3.36032 8.07902 3.21967 8.21967C3.07902 8.36032 3 8.55109 3 8.75V18.875C3 20.2925 4.2075 21.5 5.625 21.5H18.375C19.7925 21.5 21 20.3511 21 18.9336V8.75C21 8.55109 20.921 8.36032 20.7803 8.21967C20.6397 8.07902 20.4489 8 20.25 8H3.75Z" stroke="#F5F5F5" stroke-width="1.5" stroke-linecap="round" stroke-linejoin="round"/>
</svg>
