<svg width="24" height="24" viewBox="0 0 24 24" fill="none" xmlns="http://www.w3.org/2000/svg">
<path d="M3.11765 12H13.7353M5.35294 15.375L2 12L5.35294 8.625M10.9412 6.375V5.25C10.9412 4.65326 11.1767 4.08097 11.5959 3.65901C12.0151 3.23705 12.5836 3 13.1765 3H18.7647C19.3575 3 19.9261 3.23705 20.3453 3.65901C20.7645 4.08097 21 4.65326 21 5.25V18.75C21 19.3467 20.7645 19.919 20.3453 20.341C19.9261 20.7629 19.3575 21 18.7647 21H13.1765C12.5836 21 12.0151 20.7629 11.5959 20.341C11.1767 19.919 10.9412 19.3467 10.9412 18.75V17.625" stroke="#141414" stroke-width="1.5" stroke-linecap="round" stroke-linejoin="round"/>
</svg>
