<svg width="43" height="42" viewBox="0 0 43 42" fill="none" xmlns="http://www.w3.org/2000/svg">
  <circle cx="21.5" cy="21" r="20.5" stroke="white" />
  <path d="M31.0066 25.0163C30.2803 25.0163 29.6722 24.8675 29.1822 24.57C28.6922 24.2638 28.3247 23.8438 28.0797 23.31C27.8434 22.7763 27.7253 22.1681 27.7253 21.4856C27.7253 20.7944 27.8478 20.1863 28.0928 19.6613C28.3378 19.1275 28.7053 18.7075 29.1953 18.4013C29.6853 18.095 30.2978 17.9419 31.0328 17.9419C31.7591 17.9419 32.3628 18.095 32.8441 18.4013C33.3341 18.7075 33.6972 19.1275 33.9334 19.6613C34.1784 20.1863 34.3009 20.7944 34.3009 21.4856C34.3009 22.1681 34.1784 22.7763 33.9334 23.31C33.6884 23.8438 33.3209 24.2638 32.8309 24.57C32.3497 24.8675 31.7416 25.0163 31.0066 25.0163ZM31.0066 24.0319C31.5141 24.0319 31.9253 23.9181 32.2403 23.6906C32.5641 23.4631 32.8003 23.1569 32.9491 22.7719C33.1066 22.3869 33.1853 21.9581 33.1853 21.4856C33.1853 21.0131 33.1066 20.5844 32.9491 20.1994C32.8003 19.8144 32.5641 19.5081 32.2403 19.2806C31.9253 19.0531 31.5141 18.9394 31.0066 18.9394C30.5078 18.9394 30.0966 19.0531 29.7728 19.2806C29.4578 19.5081 29.2216 19.8144 29.0641 20.1994C28.9153 20.5844 28.8409 21.0131 28.8409 21.4856C28.8409 21.9581 28.9153 22.3869 29.0641 22.7719C29.2216 23.1569 29.4578 23.4631 29.7728 23.6906C30.0966 23.9181 30.5078 24.0319 31.0066 24.0319Z" fill="white" />
  <path d="M23.0723 28.035C22.5998 28.035 22.1623 27.9606 21.7598 27.8119C21.3573 27.6719 21.016 27.4488 20.736 27.1425C20.456 26.8363 20.2679 26.4469 20.1717 25.9744H21.3267C21.3967 26.2369 21.5279 26.4469 21.7204 26.6044C21.9129 26.7619 22.136 26.8713 22.3898 26.9325C22.6435 27.0025 22.8929 27.0375 23.1379 27.0375C23.6104 27.0375 23.991 26.9413 24.2798 26.7488C24.5773 26.565 24.7917 26.3069 24.9229 25.9744C25.0542 25.6506 25.1198 25.2788 25.1198 24.8588V23.9006C24.971 24.1631 24.7742 24.3775 24.5292 24.5438C24.2842 24.71 24.0173 24.8325 23.7285 24.9113C23.4398 24.9813 23.1423 25.0163 22.836 25.0163C22.136 25.0163 21.5629 24.8631 21.1167 24.5569C20.6704 24.2419 20.3379 23.8219 20.1192 23.2969C19.9092 22.7631 19.8042 22.1638 19.8042 21.4988C19.8042 20.8338 19.9135 20.2344 20.1323 19.7006C20.351 19.1581 20.6879 18.7294 21.1429 18.4144C21.5979 18.0994 22.1798 17.9419 22.8885 17.9419C23.291 17.9419 23.6979 18.0163 24.1092 18.165C24.5204 18.3138 24.8573 18.5544 25.1198 18.8869L25.1723 18.0206H26.2354V24.885C26.2354 25.5325 26.1173 26.0925 25.881 26.565C25.6535 27.0375 25.3035 27.4006 24.831 27.6544C24.3673 27.9081 23.781 28.035 23.0723 28.035ZM22.9935 24.0319C23.4573 24.0319 23.8467 23.9138 24.1617 23.6775C24.4767 23.4413 24.7173 23.1263 24.8835 22.7325C25.0498 22.3388 25.1329 21.91 25.1329 21.4463C25.1329 20.965 25.0498 20.5363 24.8835 20.16C24.726 19.7838 24.4898 19.4863 24.1748 19.2675C23.8598 19.0488 23.4617 18.9394 22.9804 18.9394C22.4817 18.9394 22.0792 19.0531 21.7729 19.2806C21.4754 19.5081 21.2567 19.8144 21.1167 20.1994C20.9854 20.5844 20.9198 21.0131 20.9198 21.4856C20.9198 21.9756 20.9898 22.4131 21.1298 22.7981C21.2698 23.1831 21.4929 23.485 21.7992 23.7038C22.1054 23.9225 22.5035 24.0319 22.9935 24.0319Z" fill="white" />
  <path d="M15.2796 25.0163C14.5534 25.0163 13.9453 24.8675 13.4553 24.57C12.9653 24.2638 12.5978 23.8438 12.3528 23.31C12.1165 22.7763 11.9984 22.1681 11.9984 21.4856C11.9984 20.7944 12.1209 20.1863 12.3659 19.6613C12.6109 19.1275 12.9784 18.7075 13.4684 18.4013C13.9584 18.095 14.5709 17.9419 15.3059 17.9419C16.0321 17.9419 16.6359 18.095 17.1171 18.4013C17.6071 18.7075 17.9703 19.1275 18.2065 19.6613C18.4515 20.1863 18.574 20.7944 18.574 21.4856C18.574 22.1681 18.4515 22.7763 18.2065 23.31C17.9615 23.8438 17.594 24.2638 17.104 24.57C16.6228 24.8675 16.0146 25.0163 15.2796 25.0163ZM15.2796 24.0319C15.7871 24.0319 16.1984 23.9181 16.5134 23.6906C16.8371 23.4631 17.0734 23.1569 17.2221 22.7719C17.3796 22.3869 17.4584 21.9581 17.4584 21.4856C17.4584 21.0131 17.3796 20.5844 17.2221 20.1994C17.0734 19.8144 16.8371 19.5081 16.5134 19.2806C16.1984 19.0531 15.7871 18.9394 15.2796 18.9394C14.7809 18.9394 14.3696 19.0531 14.0459 19.2806C13.7309 19.5081 13.4946 19.8144 13.3371 20.1994C13.1884 20.5844 13.114 21.0131 13.114 21.4856C13.114 21.9581 13.1884 22.3869 13.3371 22.7719C13.4946 23.1569 13.7309 23.4631 14.0459 23.6906C14.3696 23.9181 14.7809 24.0319 15.2796 24.0319Z" fill="white" />
  <path d="M9.38982 24.9376V15.6582H10.5054V24.9376H9.38982Z" fill="white" />
</svg>