<svg width="24" height="24" viewBox="0 0 24 24" fill="none" xmlns="http://www.w3.org/2000/svg">
  <g clip-path="url(#clip0_181679_188693)">
    <path d="M3.04686 12.9375C2.28285 11.5102 2.05728 9.8558 2.41129 8.27604C2.7653 6.69628 3.6753 5.29637 4.97536 4.33159C6.27542 3.3668 7.87893 2.9014 9.4935 3.02026C11.1081 3.13912 12.6261 3.83431 13.7709 4.97907C14.9157 6.12384 15.6109 7.64191 15.7297 9.25648C15.8486 10.8711 15.3832 12.4746 14.4184 13.7746C13.4536 15.0747 12.0537 15.9847 10.4739 16.3387C8.89418 16.6927 7.2398 16.4671 5.81248 15.7031L3.20998 16.4681C3.08075 16.5061 2.94369 16.5085 2.81319 16.4752C2.68269 16.4419 2.56356 16.3741 2.46832 16.2788C2.37309 16.1836 2.30525 16.0645 2.27195 15.934C2.23864 15.8035 2.24109 15.6664 2.27904 15.5372L3.04686 12.9375Z" stroke="white" stroke-linecap="round" stroke-linejoin="round" />
    <path d="M15.3694 7.51031C16.5033 7.57196 17.6033 7.91869 18.5677 8.51841C19.532 9.11813 20.3294 9.95145 20.8861 10.9412C21.4429 11.931 21.7409 13.0452 21.7526 14.1808C21.7643 15.3163 21.4893 16.4365 20.9531 17.4375L21.7181 20.04C21.7561 20.1692 21.7585 20.3063 21.7252 20.4368C21.6919 20.5673 21.6241 20.6864 21.5288 20.7817C21.4336 20.8769 21.3145 20.9447 21.184 20.978C21.0535 21.0113 20.9164 21.0089 20.7872 20.9709L18.1875 20.2031C17.3287 20.6624 16.3808 20.9305 15.4087 20.9892C14.4366 21.0478 13.4633 20.8955 12.5556 20.5428C11.6479 20.1901 10.8271 19.6453 10.1497 18.9457C9.47218 18.2461 8.95399 17.4083 8.63062 16.4897" stroke="white" stroke-linecap="round" stroke-linejoin="round" />
  </g>
  <defs>
    <clipPath id="clip0_181679_188693">
      <rect width="24" height="24" fill="white" />
    </clipPath>
  </defs>
</svg>